<svg xmlns="http://www.w3.org/2000/svg" width="10" height="10" fill="none" viewBox="0 0 10 10">
  <path fill="#fff" fill-opacity=".5" d="M6.733 5.21H5.242V2.88a.495.495 0 0 0-.495-.495h-.094a.495.495 0 0 0-.495.495v2.918c0 .273.222.495.495.495h.097l.002.001h1.98a.495.495 0 0 0 .496-.495v-.093a.495.495 0 0 0-.495-.495Zm0-5.21H3.267A3.27 3.27 0 0 0 0 3.267v3.466A3.27 3.27 0 0 0 3.267 10h3.466A3.27 3.27 0 0 0 10 6.733V3.267A3.27 3.27 0 0 0 6.733 0Zm1.98 6.733a1.98 1.98 0 0 1-1.98 1.98H3.267a1.98 1.98 0 0 1-1.98-1.98V3.267a1.98 1.98 0 0 1 1.98-1.98h3.466a1.98 1.98 0 0 1 1.98 1.98v3.466Z"/>
</svg>
