<svg xmlns="http://www.w3.org/2000/svg" width="59" height="65" fill="none" viewBox="0 0 59 65" class="Icon Logo"><path fill="#4494E6" d="M53.575 11.917H42.957v25.468l3.924 3.923c1.235 1.236 3.348.36 3.348-1.387v-19.75a.981.981 0 0 1 .981-.982h4.9c1.748 0 2.624-2.113 1.388-3.349l-3.923-3.923Z"></path><path fill="#4CA4FF" d="M53.574 11.917 42.233.575a1.962 1.962 0 0 0-2.775 0L24.193 15.84c-1.236 1.236-.36 3.35 1.387 3.35h4.9a.98.98 0 0 1 .981.98v19.751c0 1.748 2.114 2.623 3.35 1.387l5.34-5.34a.981.981 0 0 1 1.388 0l1.418 1.417c1.235 1.236 3.349.36 3.349-1.387v-18.77c0-1.084.878-1.962 1.961-1.962h3.92c1.748 0 2.623-2.113 1.387-3.349Z"></path><path fill="#EE4040" d="M30.883 53.083H20.266V27.615l3.923-3.923c1.236-1.236 3.35-.361 3.35 1.387v19.75a.98.98 0 0 0 .98.981h4.9c1.748 0 2.624 2.114 1.388 3.35l-3.924 3.923Z"></path><path fill="#F84A4A" d="M30.884 53.083 19.54 64.426a1.962 1.962 0 0 1-2.774 0L1.502 49.16c-1.236-1.236-.36-3.35 1.387-3.35h4.9a.98.98 0 0 0 .982-.98V25.079c0-1.748 2.113-2.623 3.348-1.387l5.342 5.34a.98.98 0 0 0 1.387 0l1.418-1.417c1.236-1.236 3.349-.36 3.349 1.387v18.77c0 1.084.878 1.962 1.962 1.962h3.92c1.747 0 2.622 2.113 1.387 3.349Z"></path></svg>